ply
format ascii 1.0
comment Created by Open3D
element vertex 948
property double x
property double y
property double z
property uchar red
property uchar green
property uchar blue
end_header
-0.407658 0.878861 -1.764 168 172 171
-0.404904 0.878861 -1.764 167 173 172
-0.407196 0.87511 -1.762 168 172 171
-0.404445 0.87511 -1.762 167 173 172
-0.407196 0.872356 -1.762 166 170 170
-0.404445 0.872356 -1.762 168 172 172
-0.407196 0.869602 -1.762 168 172 171
-0.404445 0.869602 -1.762 166 170 169
-0.407196 0.866848 -1.762 168 172 172
-0.404445 0.866848 -1.762 168 172 172
-0.406734 0.863113 -1.76 170 174 174
-0.403986 0.863113 -1.76 170 174 174
-0.406734 0.860362 -1.76 167 173 173
-0.403986 0.860362 -1.76 167 173 173
-0.365001 0.911211 -1.87 161 167 167
-0.362082 0.911211 -1.87 157 163 163
-0.383747 0.911202 -1.876 161 167 167
-0.380615 0.910717 -1.875 160 166 166
-0.377688 0.910717 -1.875 161 167 167
-0.371436 0.909745 -1.873 162 168 168
-0.368511 0.909745 -1.873 162 168 168
-0.365001 0.908288 -1.87 161 167 167
-0.362082 0.908288 -1.87 161 167 167
-0.359546 0.909259 -1.872 160 166 166
-0.383747 0.90827 -1.876 160 166 166
-0.380615 0.907786 -1.875 161 167 167
-0.377688 0.907786 -1.875 161 167 167
-0.37496 0.90827 -1.876 162 168 168
-0.371436 0.906817 -1.873 162 168 168
-0.368511 0.906817 -1.873 161 167 167
-0.365587 0.906817 -1.873 160 166 166
-0.362469 0.906333 -1.872 161 167 167
-0.359546 0.906333 -1.872 161 167 167
-0.356814 0.906817 -1.873 161 167 167
-0.387295 0.906785 -1.879 164 170 170
-0.384156 0.906303 -1.878 162 168 168
-0.380818 0.905337 -1.876 162 168 168
-0.377889 0.905337 -1.876 162 168 168
-0.37496 0.905337 -1.876 163 169 169
-0.371832 0.904855 -1.875 161 167 167
-0.368905 0.904855 -1.875 160 166 166
-0.365782 0.904372 -1.874 160 166 166
-0.362856 0.904372 -1.874 160 166 166
-0.359738 0.90389 -1.873 161 167 167
-0.356814 0.90389 -1.873 162 168 168
-0.354267 0.904855 -1.875 161 167 167
-0.387295 0.903848 -1.879 163 169 168
-0.384156 0.903367 -1.878 163 169 168
-0.381224 0.903367 -1.878 163 169 168
-0.378292 0.903367 -1.878 163 169 168
-0.37536 0.903367 -1.878 163 169 168
-0.372427 0.903367 -1.878 159 165 164
-0.369298 0.902886 -1.877 161 167 166
-0.366368 0.902886 -1.877 162 168 167
-0.36305 0.901924 -1.875 161 167 166
-0.360122 0.901924 -1.875 162 168 167
-0.357195 0.901924 -1.875 162 168 167
-0.354267 0.901924 -1.875 162 168 167
-0.351806 1.29011 -2.682 152 156 156
-0.347618 1.29011 -2.682 152 156 156
-0.387295 0.900911 -1.879 163 169 168
-0.384156 0.900431 -1.878 163 169 168
-0.381224 0.900431 -1.878 163 169 168
-0.378493 0.900911 -1.879 163 169 168
-0.375559 0.900911 -1.879 163 169 168
-0.372626 0.900911 -1.879 161 167 166
-0.369495 0.900431 -1.878 163 169 168
-0.366563 0.900431 -1.878 162 168 167
-0.363437 0.899952 -1.877 161 167 166
-0.360314 0.899473 -1.876 161 167 166
-0.357385 0.899473 -1.876 160 166 165
-0.354645 0.899952 -1.877 161 167 166
-0.359106 1.28208 -2.674 150 154 154
-0.354931 1.28208 -2.674 151 155 155
-0.351543 1.28496 -2.68 152 156 156
-0.347618 1.28592 -2.682 152 156 156
-0.344967 1.29167 -2.694 154 158 158
-0.341014 1.29263 -2.696 152 156 156
-0.337554 1.29551 -2.702 151 155 155
-0.334076 1.29839 -2.708 151 155 155
-0.330091 1.29934 -2.71 149 153 153
-0.326341 1.30126 -2.714 149 153 153
-0.387707 0.89893 -1.881 163 169 168
-0.384565 0.898452 -1.88 163 169 168
-0.38163 0.898452 -1.88 162 168 167
-0.378695 0.898452 -1.88 162 168 167
-0.375759 0.898452 -1.88 161 167 166
-0.372824 0.898452 -1.88 160 166 165
-0.369889 0.898452 -1.88 162 168 167
-0.366953 0.898452 -1.88 162 168 167
-0.363824 0.897974 -1.879 161 167 166
-0.360891 0.897974 -1.879 161 167 166
-0.357957 0.897974 -1.879 160 166 165
-0.355212 0.898452 -1.88 160 166 165
-0.359106 1.2779 -2.674 152 156 155
-0.354931 1.2779 -2.674 151 155 154
-0.351543 1.28077 -2.68 152 156 155
-0.348137 1.28364 -2.686 152 156 155
-0.344967 1.28746 -2.694 152 156 155
-0.341014 1.28842 -2.696 151 155 154
-0.337554 1.29129 -2.702 151 155 154
-0.334076 1.29415 -2.708 152 156 155
-0.330091 1.29511 -2.71 151 155 154
-0.326341 1.29702 -2.714 149 153 152
-0.323053 1.30084 -2.722 152 156 155
-0.387913 0.896466 -1.882 163 169 168
-0.384974 0.896466 -1.882 162 168 167
-0.381833 0.895989 -1.881 162 168 167
-0.378896 0.895989 -1.881 162 168 167
-0.376159 0.896466 -1.882 161 167 166
-0.373221 0.896466 -1.882 161 167 166
-0.370282 0.896466 -1.882 162 168 167
-0.367149 0.895989 -1.881 162 168 167
-0.364212 0.895989 -1.881 160 166 165
-0.361275 0.895989 -1.881 161 167 166
-0.358338 0.895989 -1.881 161 167 166
-0.355401 0.895989 -1.881 160 166 165
-0.36301 1.27277 -2.672 152 158 157
-0.358838 1.27277 -2.672 152 158 157
-0.355462 1.27563 -2.678 150 156 155
-0.352068 1.27849 -2.684 150 156 155
-0.348914 1.2823 -2.692 150 156 155
-0.345479 1.28516 -2.698 148 154 153
-0.342026 1.28801 -2.704 148 154 153
-0.338304 1.28992 -2.708 148 154 153
-0.334569 1.29183 -2.712 154 158 157
-0.330822 1.29373 -2.716 154 158 157
-0.327062 1.29564 -2.72 152 156 155
-0.323053 1.29659 -2.722 152 156 155
-0.385384 0.894473 -1.884 163 169 168
-0.382442 0.894473 -1.884 162 168 167
-0.3795 0.894473 -1.884 162 168 167
-0.376559 0.894473 -1.884 161 167 166
-0.373816 0.894948 -1.885 160 166 165
-0.370676 0.894473 -1.884 161 167 166
-0.367539 0.893999 -1.883 162 168 167
-0.364599 0.893999 -1.883 160 166 165
-0.361659 0.893999 -1.883 161 167 166
-0.358909 0.894473 -1.884 161 167 166
-0.36301 1.26859 -2.672 150 156 155
-0.358838 1.26859 -2.672 150 156 155
-0.355993 1.27334 -2.682 152 156 155
-0.352593 1.27619 -2.688 152 156 155
-0.349173 1.27904 -2.694 154 158 157
-0.345736 1.28189 -2.7 154 158 157
-0.342279 1.28474 -2.706 152 156 155
-0.338803 1.28759 -2.712 154 158 157
-0.335062 1.28949 -2.716 154 158 157
-0.331309 1.29138 -2.72 154 158 157
-0.327543 1.29328 -2.724 152 156 155
-0.32329 1.29328 -2.724 151 155 154
-0.31974 1.29613 -2.73 151 155 154
-0.371069 0.892475 -1.886 161 167 166
-0.368125 0.892475 -1.886 161 167 166
-0.364986 0.892002 -1.885 160 166 165
-0.362043 0.892002 -1.885 160 166 165
-0.363553 1.26631 -2.676 150 156 155
-0.359375 1.26631 -2.676 150 156 155
-0.356259 1.2701 -2.684 150 156 155
-0.353117 1.27388 -2.692 150 156 155
-0.349951 1.27767 -2.7 150 156 155
-0.346504 1.28051 -2.706 152 158 157
-0.343038 1.28335 -2.712 154 158 157
-0.339303 1.28524 -2.716 154 158 157
-0.335803 1.28808 -2.722 154 158 157
-0.331796 1.28903 -2.724 151 155 154
-0.327784 1.28997 -2.726 151 155 154
-0.323765 1.29092 -2.728 150 154 153
-0.31974 1.29186 -2.73 150 154 153
-0.371463 0.89047 -1.888 161 167 167
-0.368515 0.89047 -1.888 161 167 167
-0.364097 1.26401 -2.68 150 156 155
-0.359912 1.26401 -2.68 150 156 155
-0.356524 1.26684 -2.686 152 156 155
-0.353642 1.27156 -2.696 152 156 155
-0.35047 1.27533 -2.704 151 155 154
-0.347016 1.27816 -2.71 151 155 154
-0.343797 1.28194 -2.718 151 155 154
-0.339803 1.28288 -2.72 152 156 155
-0.336296 1.28571 -2.726 151 155 154
-0.332527 1.2876 -2.73 151 155 154
-0.328505 1.28854 -2.732 152 156 155
-0.32424 1.28854 -2.732 151 155 154
-0.320208 1.28948 -2.734 151 155 154
-0.364368 1.26077 -2.682 153 159 158
-0.360181 1.26077 -2.682 152 158 157
-0.357586 1.26641 -2.694 152 158 157
-0.354429 1.27017 -2.702 153 159 158
-0.351506 1.27487 -2.712 154 158 157
-0.34804 1.27769 -2.718 152 156 155
-0.344809 1.28145 -2.726 152 156 155
-0.341052 1.28333 -2.73 152 156 155
-0.337283 1.28521 -2.734 152 156 155
-0.333258 1.28615 -2.736 152 156 155
-0.329227 1.28709 -2.738 152 156 155
-0.324952 1.28709 -2.738 151 155 154
-0.320677 1.28709 -2.738 151 155 154
-0.36464 1.25751 -2.684 153 159 158
-0.360449 1.25751 -2.684 150 156 155
-0.357851 1.26313 -2.696 149 155 154
-0.354954 1.26782 -2.706 153 159 158
-0.352025 1.2725 -2.716 151 155 154
-0.348809 1.27625 -2.724 152 156 155
-0.345568 1.28 -2.732 154 158 157
-0.342051 1.28281 -2.738 152 156 155
-0.33827 1.28468 -2.742 154 158 157
-0.334232 1.28562 -2.744 151 155 154
-0.329948 1.28562 -2.744 148 152 151
-0.325664 1.28562 -2.744 151 155 154
-0.321379 1.28562 -2.744 151 155 154
-0.360506 1.26826 -2.716 150 156 155
-0.356266 1.26826 -2.716 153 159 158
-0.353321 1.27293 -2.726 152 156 155
-0.349321 1.27386 -2.728 152 156 155
-0.346579 1.27946 -2.74 152 156 155
-0.342551 1.2804 -2.742 151 155 154
-0.33901 1.2832 -2.748 152 156 155
-0.335085 1.2846 -2.751 148 152 151
-0.33103 1.28554 -2.753 149 153 152
-0.326732 1.28554 -2.753 152 156 155
-0.358627 1.27239 -2.734 154 158 157
-0.354358 1.27239 -2.734 154 158 157
-0.350858 1.27518 -2.74 152 156 155
-0.347591 1.2789 -2.748 154 158 157
-0.344175 1.28216 -2.755 152 156 155
-0.340614 1.28495 -2.761 151 155 154
-0.336547 1.28589 -2.763 150 154 153
-0.332233 1.28589 -2.763 151 155 154
-0.355913 1.27368 -2.746 150 156 155
-0.351626 1.27368 -2.746 152 158 157
-0.348477 1.27786 -2.755 154 158 157
-0.344675 1.27971 -2.759 154 158 157
-1.69923 0.832088 -2.479 240 241 238
-1.69536 0.832088 -2.479 238 239 236
-1.69285 0.832759 -2.481 240 241 238
-1.69923 0.828213 -2.479 240 242 236
-1.69536 0.828213 -2.479 237 239 233
-1.69285 0.828881 -2.481 240 242 236
-1.69034 0.829549 -2.483 239 241 235
-1.6885 0.830551 -2.486 240 240 234
-1.68665 0.831554 -2.489 241 241 235
-1.68547 0.83289 -2.493 244 244 238
-1.7006 0.825003 -2.481 239 241 235
-1.69673 0.825003 -2.481 237 239 233
-1.69422 0.825668 -2.483 238 240 234
-1.69034 0.825668 -2.483 235 237 231
-1.6885 0.826665 -2.486 240 240 234
-1.68665 0.827663 -2.489 241 241 235
-1.68547 0.828993 -2.493 241 241 235
-1.70197 0.821787 -2.483 240 242 236
-1.6981 0.821787 -2.483 238 240 234
-1.69422 0.821787 -2.483 236 238 232
-1.69102 0.822118 -2.484 235 237 231
-1.68986 0.823441 -2.488 241 241 235
-1.68801 0.824434 -2.491 240 240 234
-1.68615 0.825427 -2.494 241 241 235
-1.70197 0.817905 -2.483 240 242 236
-1.6981 0.817905 -2.483 240 242 236
-1.6949 0.818235 -2.484 237 239 233
-1.69102 0.818235 -2.484 233 235 229
-1.68986 0.819552 -2.488 236 238 232
-1.68801 0.820541 -2.491 235 237 231
-1.68615 0.821529 -2.494 242 242 236
-1.70197 0.814024 -2.483 240 242 236
-1.6981 0.814024 -2.483 239 241 235
-1.6949 0.814352 -2.484 239 241 235
-1.69102 0.814352 -2.484 233 235 229
-1.68986 0.815663 -2.488 237 239 233
-1.68801 0.816647 -2.491 237 239 233
-1.68615 0.81763 -2.494 241 241 235
-1.70266 0.810469 -2.484 240 242 236
-1.69878 0.810469 -2.484 239 241 235
-1.6949 0.810469 -2.484 238 240 234
-1.69238 0.811122 -2.486 233 235 229
-1.69054 0.812101 -2.489 236 238 232
-1.68936 0.813406 -2.493 239 241 235
-1.6875 0.814384 -2.496 238 240 234
-1.70608 0.80821 -2.489 240 242 236
-1.7022 0.80821 -2.489 239 241 235
-1.69831 0.80821 -2.489 238 240 234
-1.69443 0.80821 -2.489 236 238 232
-1.69394 0.809833 -2.494 233 235 229
-1.69275 0.811132 -2.498 236 238 232
-1.6902 0.811782 -2.5 237 239 233
-1.69869 0.808197 -2.501 235 237 231
-1.69479 0.808197 -2.501 233 235 229
1.4303 0.0949575 -1.61 29 31 20
1.43281 0.0949575 -1.61 29 31 20
1.43533 0.0949575 -1.61 31 33 22
1.43695 0.0948986 -1.609 29 31 20
1.43946 0.0948986 -1.609 27 29 18
1.4303 0.0924409 -1.61 29 31 20
1.43281 0.0924409 -1.61 28 30 19
1.43533 0.0924409 -1.61 29 31 20
1.43695 0.0923835 -1.609 31 33 22
1.43946 0.0923835 -1.609 28 30 19
1.44287 0.0924409 -1.61 31 33 22
1.44538 0.0924409 -1.61 29 31 20
1.43119 0.0899801 -1.611 31 33 22
1.4337 0.0899801 -1.611 28 30 19
1.43622 0.0899801 -1.611 27 29 18
1.43784 0.0899243 -1.61 27 29 18
1.44035 0.0899243 -1.61 26 28 17
1.44287 0.0899243 -1.61 27 29 18
1.44538 0.0899243 -1.61 28 30 19
1.43208 0.0875162 -1.612 29 31 20
1.4337 0.0874619 -1.611 31 33 22
1.43622 0.0874619 -1.611 28 30 19
1.43784 0.0874076 -1.61 27 29 18
1.44035 0.0874076 -1.61 27 29 18
1.44287 0.0874076 -1.61 26 28 17
1.43208 0.0849964 -1.612 28 30 19
1.4337 0.0849437 -1.611 31 33 22
1.43622 0.0849437 -1.611 28 30 19
1.43784 0.084891 -1.61 28 30 19
1.44035 0.084891 -1.61 28 30 19
1.44287 0.084891 -1.61 28 30 19
1.43208 0.0824766 -1.612 31 33 22
1.4337 0.0824255 -1.611 32 34 23
1.43622 0.0824255 -1.611 29 31 20
1.43784 0.0823743 -1.61 31 33 22
1.44035 0.0823743 -1.61 29 31 20
1.44287 0.0823743 -1.61 28 30 19
1.43208 0.0799569 -1.612 29 31 20
1.4337 0.0799073 -1.611 29 31 20
1.43622 0.0799073 -1.611 29 31 20
1.43873 0.0799073 -1.611 29 31 20
1.44035 0.0798577 -1.61 31 33 22
1.44287 0.0798577 -1.61 29 31 20
1.43296 0.0774851 -1.613 26 30 19
1.43548 0.0774851 -1.613 27 31 20
1.438 0.0774851 -1.613 27 31 20
1.43963 0.0774371 -1.612 27 31 20
1.44214 0.0774371 -1.612 27 31 20
1.44466 0.0774371 -1.612 27 31 20
0.780345 0.0560149 -1.51 29 31 20
0.782703 0.0560149 -1.51 29 31 20
0.78506 0.0560149 -1.51 29 31 20
0.787418 0.0560149 -1.51 29 31 20
0.789775 0.0560149 -1.51 29 31 20
0.777987 0.0536546 -1.51 25 28 20
0.780345 0.0536546 -1.51 27 30 22
0.782703 0.0536546 -1.51 29 32 24
0.78506 0.0536546 -1.51 29 32 24
0.787418 0.0536546 -1.51 29 32 24
0.789775 0.0536546 -1.51 29 32 24
0.792133 0.0536546 -1.51 29 32 24
0.777987 0.0512942 -1.51 25 29 18
0.780345 0.0512942 -1.51 27 31 20
0.782703 0.0512942 -1.51 29 33 22
0.78506 0.0512942 -1.51 27 31 20
0.787418 0.0512942 -1.51 29 33 22
0.789775 0.0512942 -1.51 31 33 22
0.792133 0.0512942 -1.51 29 31 20
0.777987 0.0489339 -1.51 25 29 18
0.780345 0.0489339 -1.51 27 31 20
0.782703 0.0489339 -1.51 29 33 22
0.78506 0.0489339 -1.51 29 33 22
0.787418 0.0489339 -1.51 27 31 20
0.789775 0.0489339 -1.51 29 33 22
0.792658 0.0489663 -1.511 25 29 18
0.777987 0.0465736 -1.51 27 31 20
0.780345 0.0465736 -1.51 27 31 20
0.782703 0.0465736 -1.51 29 33 22
0.78506 0.0465736 -1.51 29 33 22
0.787418 0.0465736 -1.51 27 31 20
0.790299 0.0466044 -1.511 27 31 20
0.792658 0.0466044 -1.511 26 30 19
0.783739 0.0442718 -1.512 27 31 20
0.7861 0.0442718 -1.512 27 31 20
0.788461 0.0442718 -1.512 26 30 19
0.790821 0.0442718 -1.512 27 31 20
0.793182 0.0442718 -1.512 26 30 19
0.788982 0.0419361 -1.513 25 29 18
0.791345 0.0419361 -1.513 27 31 20
0.793707 0.0419361 -1.513 26 30 19
1.19954 0.0312796 -1.272 27 27 16
1.20152 0.0312796 -1.272 28 28 17
1.20351 0.0312796 -1.272 27 27 16
1.20549 0.0312796 -1.272 24 26 15
1.20748 0.0312796 -1.272 27 29 18
1.20947 0.0312796 -1.272 29 31 20
1.21145 0.0312796 -1.272 28 30 19
1.19765 0.0292452 -1.27 24 24 13
1.19963 0.0292452 -1.27 22 24 13
1.20256 0.0292683 -1.271 22 24 13
1.20455 0.0292683 -1.271 24 26 15
1.20653 0.0292683 -1.271 26 28 17
1.20947 0.0292913 -1.272 28 30 19
1.21145 0.0292913 -1.272 29 31 20
1.19274 0.0272386 -1.269 27 29 18
1.19473 0.0272386 -1.269 25 27 16
1.19576 0.0272171 -1.268 25 27 16
1.19774 0.0272171 -1.268 27 29 18
1.20067 0.0272386 -1.269 26 28 17
1.20265 0.0272386 -1.269 26 28 17
1.20463 0.0272386 -1.269 27 29 18
1.20756 0.0272601 -1.27 27 29 18
1.20955 0.0272601 -1.27 28 30 19
1.21248 0.0272815 -1.271 28 30 19
0.864493 0.0334942 -1.683 27 31 20
0.867121 0.0334942 -1.683 27 31 20
0.872895 0.0335141 -1.684 29 33 22
0.875524 0.0335141 -1.684 27 31 20
0.878675 0.033534 -1.685 27 31 20
0.881829 0.0335539 -1.686 27 30 22
1.1918 0.0252351 -1.268 27 29 18
1.19284 0.0252152 -1.267 26 28 17
1.19482 0.0252152 -1.267 27 29 18
1.19774 0.0252351 -1.268 27 29 18
1.19972 0.0252351 -1.268 27 29 18
1.2017 0.0252351 -1.268 27 29 18
1.20463 0.025255 -1.269 27 29 18
1.20661 0.025255 -1.269 27 29 18
1.2086 0.025255 -1.269 27 29 18
1.21153 0.0252749 -1.27 27 29 18
1.21447 0.0252948 -1.271 27 29 18
1.21741 0.0253147 -1.272 25 29 18
1.2194 0.0253147 -1.272 25 29 18
0.859238 0.0308634 -1.683 27 31 20
0.861865 0.0308634 -1.683 27 31 20
0.864493 0.0308634 -1.683 27 31 20
0.867121 0.0308634 -1.683 27 31 20
0.870782 0.0309001 -1.685 27 31 20
0.872895 0.0308818 -1.684 27 31 20
0.875524 0.0308818 -1.684 27 31 20
0.878675 0.0309001 -1.685 27 31 20
0.881829 0.0309185 -1.686 26 29 21
1.18992 0.0232164 -1.266 24 28 17
1.1919 0.0232164 -1.266 24 28 17
1.19388 0.0232164 -1.266 26 30 19
1.1968 0.0232347 -1.267 27 31 20
1.19878 0.0232347 -1.267 27 31 20
1.20076 0.0232347 -1.267 26 30 19
1.20368 0.023253 -1.268 26 30 19
1.20566 0.023253 -1.268 22 26 15
1.2086 0.0232714 -1.269 25 29 18
1.21058 0.0232714 -1.269 24 28 17
1.21351 0.0232897 -1.27 24 28 17
1.21645 0.023308 -1.271 20 24 13
1.2194 0.0233264 -1.272 24 28 17
0.858646 0.0282998 -1.687 27 31 20
0.859238 0.0282327 -1.683 27 31 20
0.861865 0.0282327 -1.683 27 31 20
0.865521 0.0282662 -1.685 27 31 20
0.868151 0.0282662 -1.685 27 31 20
0.870782 0.0282662 -1.685 27 31 20
0.873413 0.0282662 -1.685 27 31 20
0.876564 0.028283 -1.686 27 31 20
0.879196 0.028283 -1.686 27 31 20
0.882352 0.0282998 -1.687 26 30 19
1.18992 0.0212374 -1.266 23 27 16
1.19096 0.0212206 -1.265 25 29 18
1.19293 0.0212206 -1.265 25 29 18
1.19491 0.0212206 -1.265 28 30 19
1.19783 0.0212374 -1.266 28 30 19
1.19981 0.0212374 -1.266 28 30 19
1.20273 0.0212542 -1.267 28 30 19
1.20566 0.021271 -1.268 22 24 13
1.2086 0.0212877 -1.269 26 28 17
1.21058 0.0212877 -1.269 26 28 17
1.21256 0.0212877 -1.269 27 29 18
1.2155 0.0213045 -1.27 25 27 16
1.2194 0.0213381 -1.272 22 24 13
0.858646 0.0256628 -1.687 27 31 20
0.860769 0.0256476 -1.686 27 31 20
0.863402 0.0256476 -1.686 27 31 20
0.866034 0.0256476 -1.686 27 31 20
0.868667 0.0256476 -1.686 27 31 20
0.871816 0.0256628 -1.687 27 31 20
0.878124 0.0256932 -1.689 27 31 20
0.880761 0.0256932 -1.689 27 31 20
1.18898 0.0192433 -1.265 24 28 17
1.19096 0.0192433 -1.265 25 29 18
1.19293 0.0192433 -1.265 25 29 18
1.19491 0.0192433 -1.265 27 31 20
1.19689 0.0192433 -1.265 25 29 18
1.19981 0.0192585 -1.266 25 29 18
1.20273 0.0192737 -1.267 25 29 18
1.20566 0.0192889 -1.268 20 24 13
1.20764 0.0192889 -1.268 24 28 17
1.20962 0.0192889 -1.268 23 27 16
1.21256 0.0193041 -1.269 24 28 17
1.2155 0.0193193 -1.27 25 29 18
1.2194 0.0193498 -1.272 26 30 19
0.867499 0.0231213 -1.694 27 31 20
0.868089 0.0230667 -1.69 27 31 20
0.870728 0.0230667 -1.69 27 31 20
0.873366 0.0230667 -1.69 27 31 20
0.87756 0.0231077 -1.693 27 31 20
0.878124 0.0230531 -1.689 29 33 22
0.880761 0.0230531 -1.689 27 31 20
0.884967 0.023094 -1.692 26 30 19
0.887609 0.023094 -1.692 26 30 19
0.890251 0.023094 -1.692 25 28 20
0.89342 0.0231077 -1.693 24 27 19
0.896593 0.0231213 -1.694 26 29 21
0.899768 0.023135 -1.695 26 29 21
0.90348 0.0231623 -1.697 27 30 22
1.18898 0.0172659 -1.265 25 27 16
1.19002 0.0172523 -1.264 26 28 17
1.19199 0.0172523 -1.264 28 30 19
1.19397 0.0172523 -1.264 27 29 18
1.19594 0.0172523 -1.264 26 28 17
1.19886 0.0172659 -1.265 26 28 17
1.20084 0.0172659 -1.265 26 28 17
1.20376 0.0172796 -1.266 26 28 17
1.20764 0.0173069 -1.268 28 30 19
1.20962 0.0173069 -1.268 27 29 18
1.21256 0.0173205 -1.269 27 29 18
1.2155 0.0173342 -1.27 27 29 18
1.2194 0.0173615 -1.272 26 28 17
0.863736 0.0205096 -1.697 27 30 22
0.866385 0.0205096 -1.697 29 32 24
0.867499 0.0204734 -1.694 27 30 22
0.870144 0.0204734 -1.694 25 28 20
0.872273 0.0204613 -1.693 26 29 21
0.874917 0.0204613 -1.693 26 29 21
0.87756 0.0204613 -1.693 26 29 21
0.879683 0.0204492 -1.692 25 28 20
0.882325 0.0204492 -1.692 26 29 21
0.884967 0.0204492 -1.692 24 27 19
0.887609 0.0204492 -1.692 24 27 19
0.890251 0.0204492 -1.692 24 27 19
0.89342 0.0204613 -1.693 24 27 19
0.896593 0.0204734 -1.694 26 29 21
0.899768 0.0204855 -1.695 25 28 20
0.90348 0.0205096 -1.697 26 29 21
1.19002 0.0152765 -1.264 25 27 16
1.19011 0.0152523 -1.262 26 28 17
1.19208 0.0152523 -1.262 26 28 17
1.19499 0.0152644 -1.263 26 28 17
1.19791 0.0152765 -1.264 26 28 17
1.20084 0.0152886 -1.265 27 29 18
1.20376 0.0153006 -1.266 27 31 20
1.20764 0.0153248 -1.268 26 30 19
1.20962 0.0153248 -1.268 26 30 19
1.21256 0.0153369 -1.269 26 30 19
1.21645 0.0153611 -1.271 27 31 20
1.2194 0.0153732 -1.272 25 29 18
0.86046 0.0178991 -1.701 26 29 21
0.863116 0.0178991 -1.701 27 30 22
0.863736 0.017857 -1.697 27 30 22
0.866385 0.017857 -1.697 27 30 22
0.869035 0.017857 -1.697 27 30 22
0.871685 0.017857 -1.697 26 29 21
0.873819 0.0178465 -1.696 25 28 20
0.876467 0.0178465 -1.696 25 28 20
0.879115 0.0178465 -1.696 26 29 21
0.880723 0.0178254 -1.694 25 29 18
0.883368 0.0178254 -1.694 26 30 19
0.886013 0.0178254 -1.694 25 29 18
0.888658 0.0178254 -1.694 24 28 17
0.891303 0.0178254 -1.694 24 27 19
0.893948 0.0178254 -1.694 24 27 19
0.897122 0.0178359 -1.695 26 29 21
0.90083 0.017857 -1.697 25 28 20
0.904012 0.0178675 -1.698 26 29 21
0.912537 0.0179833 -1.709 27 30 22
1.19011 0.0132796 -1.262 27 29 18
1.19208 0.0132796 -1.262 27 29 18
1.19499 0.0132901 -1.263 28 30 19
1.19791 0.0133007 -1.264 27 29 18
1.19989 0.0133007 -1.264 27 29 18
1.20376 0.0133217 -1.266 28 30 19
1.20669 0.0133322 -1.267 29 31 20
1.20962 0.0133428 -1.268 26 30 19
1.21256 0.0133533 -1.269 25 29 18
1.21645 0.0133743 -1.271 26 30 19
0.858813 0.0152581 -1.703 27 30 22
0.86046 0.0152402 -1.701 26 29 21
0.863116 0.0152402 -1.701 27 30 22
0.865772 0.0152402 -1.701 26 29 21
0.868427 0.0152402 -1.701 26 29 21
0.871083 0.0152402 -1.701 27 30 22
0.873225 0.0152312 -1.7 26 29 21
0.875365 0.0152223 -1.699 26 29 21
0.878017 0.0152223 -1.699 25 28 20
0.881188 0.0152312 -1.7 25 28 20
0.884363 0.0152402 -1.701 25 28 20
0.887018 0.0152402 -1.701 26 29 21
0.889674 0.0152402 -1.701 26 29 21
0.892855 0.0152491 -1.702 25 28 20
0.895512 0.0152491 -1.702 25 28 20
0.899225 0.0152671 -1.704 24 27 19
0.902415 0.015276 -1.705 26 29 21
0.906138 0.0152939 -1.707 26 29 21
0.909868 0.0153119 -1.709 26 29 21
0.912537 0.0153119 -1.709 27 30 22
0.916812 0.0153387 -1.712 27 30 22
1.19791 0.0113249 -1.264 27 29 18
1.19989 0.0113249 -1.264 27 29 18
1.20376 0.0113428 -1.266 25 29 18
1.20669 0.0113517 -1.267 26 30 19
0.858813 0.0125961 -1.703 27 30 22
0.861472 0.0125961 -1.703 25 28 20
0.864131 0.0125961 -1.703 25 28 20
0.86679 0.0125961 -1.703 24 27 19
0.869448 0.0125961 -1.703 25 28 20
0.871595 0.0125887 -1.702 25 28 20
0.873739 0.0125813 -1.701 26 29 21
0.876395 0.0125813 -1.701 27 30 22
0.879051 0.0125813 -1.701 26 29 21
0.882225 0.0125887 -1.702 25 28 20
0.885922 0.0126035 -1.704 25 28 20
0.889104 0.0126109 -1.705 26 29 21
0.892289 0.0126183 -1.706 25 28 20
0.896002 0.0126331 -1.708 24 27 19
0.899195 0.0126405 -1.709 25 28 20
0.901863 0.0126405 -1.709 24 27 19
0.90612 0.0126627 -1.712 25 28 20
0.908793 0.0126627 -1.712 26 29 21
0.911466 0.0126627 -1.712 26 29 21
0.914139 0.0126627 -1.712 26 29 21
0.916812 0.0126627 -1.712 26 29 21
0.859317 0.0099399 -1.704 27 31 20
0.861472 0.00993407 -1.703 26 30 19
0.864131 0.00993407 -1.703 27 30 22
0.867299 0.0099399 -1.704 27 30 22
0.869959 0.0099399 -1.704 27 30 22
0.872107 0.00993407 -1.703 26 29 21
0.874766 0.00993407 -1.703 27 30 22
0.877425 0.00993407 -1.703 27 30 22
0.880601 0.0099399 -1.704 27 30 22
0.88378 0.00994573 -1.705 26 29 21
0.887482 0.0099574 -1.707 26 29 21
0.890147 0.0099574 -1.707 26 29 21
0.893858 0.00996907 -1.709 25 28 20
0.897576 0.00998073 -1.711 24 27 19
0.9013 0.0099924 -1.713 25 28 20
0.904502 0.00999823 -1.714 25 28 20
0.908766 0.0100157 -1.717 24 27 19
0.911447 0.0100157 -1.717 24 27 19
0.914128 0.0100157 -1.717 24 27 19
0.916808 0.0100157 -1.717 26 29 21
0.924309 0.0100682 -1.726 27 30 22
0.859317 0.00727632 -1.704 26 30 19
0.861977 0.00727632 -1.704 25 29 18
0.864638 0.00727632 -1.704 27 30 22
0.867808 0.00728059 -1.705 27 30 22
0.869959 0.00727632 -1.704 27 30 22
0.87262 0.00727632 -1.704 26 29 21
0.875794 0.00728059 -1.705 27 30 22
0.878456 0.00728059 -1.705 25 28 20
0.881635 0.00728486 -1.706 26 29 21
0.885853 0.00729767 -1.709 27 30 22
0.889042 0.00730194 -1.71 27 30 22
0.891712 0.00730194 -1.71 26 29 21
0.895951 0.00731475 -1.713 24 27 19
0.903346 0.00735318 -1.722 25 28 20
0.907087 0.00736172 -1.724 25 28 20
0.91189 0.0073788 -1.728 26 29 21
0.915647 0.00738734 -1.73 25 28 20
0.917817 0.00738307 -1.729 24 27 19
0.920516 0.00738307 -1.729 25 28 20
0.921614 0.00737026 -1.726 26 29 21
0.924309 0.00737026 -1.726 26 29 21
0.859821 0.00461545 -1.705 26 30 19
0.862483 0.00461545 -1.705 26 30 19
0.865145 0.00461545 -1.705 27 31 20
0.867808 0.00461545 -1.705 29 33 22
0.87098 0.00461815 -1.706 26 30 19
0.873644 0.00461815 -1.706 25 29 18
0.876821 0.00462086 -1.707 30 34 23
0.879486 0.00462086 -1.707 27 31 20
0.883702 0.00462898 -1.71 25 29 18
0.887927 0.0046371 -1.713 26 30 19
0.891121 0.00463981 -1.714 24 28 17
0.893797 0.00463981 -1.714 24 28 17
0.898043 0.00464793 -1.717 24 28 17
0.903346 0.00466146 -1.722 25 29 18
0.907087 0.00466688 -1.724 26 29 21
0.91189 0.00467771 -1.728 26 29 21
0.915647 0.00468312 -1.73 26 29 21
0.917817 0.00468041 -1.729 26 29 21
0.920516 0.00468041 -1.729 26 29 21
0.92375 0.00468312 -1.73 26 29 21
0.926987 0.00468583 -1.731 25 28 20
0.863495 0.00195259 -1.707 26 30 19
0.86616 0.00195259 -1.707 27 31 20
0.869334 0.00195373 -1.708 27 31 20
0.872001 0.00195373 -1.708 26 30 19
0.874668 0.00195373 -1.708 26 30 19
0.877848 0.00195488 -1.709 29 33 22
0.880517 0.00195488 -1.709 30 34 23
0.885252 0.00195945 -1.713 27 31 20
0.888964 0.00196174 -1.715 27 31 20
0.893201 0.00196517 -1.718 26 30 19
0.896926 0.00196746 -1.72 27 31 20
0.901704 0.00197204 -1.724 25 29 18
0.907543 0.0019789 -1.73 25 29 18
0.911823 0.00198233 -1.733 25 28 20
0.916639 0.00198691 -1.737 25 28 20
0.920939 0.00199034 -1.74 26 29 21
0.923656 0.00199034 -1.74 27 30 22
0.864507 -0.000716519 -1.709 27 31 20
0.867175 -0.000716519 -1.709 26 30 19
0.869843 -0.000716519 -1.709 27 31 20
0.873533 -0.000717358 -1.711 27 31 20
0.876204 -0.000717358 -1.711 25 29 18
0.878876 -0.000717358 -1.711 25 29 18
0.882062 -0.000717777 -1.712 27 31 20
0.886803 -0.000719454 -1.716 25 29 18
0.891555 -0.000721131 -1.72 27 31 20
0.895281 -0.00072197 -1.722 27 31 20
0.900055 -0.000723647 -1.726 27 31 20
0.904842 -0.000725324 -1.73 26 30 19
0.910166 -0.00072742 -1.735 25 29 18
0.922444 -0.000732871 -1.748 24 27 19
0.924644 -0.000732451 -1.747 25 28 20
0.927372 -0.000732451 -1.747 26 29 21
0.90527 -0.00344144 -1.736 25 29 18
0.90798 -0.00344144 -1.736 26 29 21
0.804021 -0.0216095 -1.672 26 29 21
0.806632 -0.0216095 -1.672 26 29 21
0.798322 -0.0242086 -1.671 29 30 22
0.800931 -0.0242086 -1.671 26 29 21
0.80354 -0.0242086 -1.671 25 28 20
0.806632 -0.0242231 -1.672 26 29 21
0.809242 -0.0242231 -1.672 24 27 19
0.812338 -0.0242375 -1.673 25 28 20
0.81495 -0.0242375 -1.673 24 27 19
0.797844 -0.0268045 -1.67 28 29 21
0.800452 -0.0268045 -1.67 26 29 21
0.80354 -0.0268206 -1.671 25 28 20
0.806149 -0.0268206 -1.671 26 29 21
0.809242 -0.0268366 -1.672 25 28 20
0.811853 -0.0268366 -1.672 25 28 20
0.814463 -0.0268366 -1.672 25 28 20
0.797844 -0.0294149 -1.67 27 28 20
0.800452 -0.0294149 -1.67 27 28 20
0.803059 -0.0294149 -1.67 27 28 20
0.806149 -0.0294326 -1.671 25 28 20
0.809242 -0.0294502 -1.672 25 28 20
0.811853 -0.0294502 -1.672 26 29 21
0.814463 -0.0294502 -1.672 26 29 21
0.798322 -0.0320446 -1.671 27 28 20
0.800452 -0.0320254 -1.67 26 27 19
0.803059 -0.0320254 -1.67 27 28 20
0.806632 -0.0320637 -1.672 26 29 21
0.809242 -0.0320637 -1.672 26 29 21
0.811853 -0.0320637 -1.672 26 29 21
0.814463 -0.0320637 -1.672 26 29 21
0.797844 -0.0346358 -1.67 27 28 20
0.800452 -0.0346358 -1.67 27 28 20
0.803059 -0.0346358 -1.67 28 29 21
0.806632 -0.0346773 -1.672 28 29 21
0.809242 -0.0346773 -1.672 28 29 21
0.811853 -0.0346773 -1.672 26 29 21
0.814463 -0.0346773 -1.672 26 29 21
0.797844 -0.0372462 -1.67 28 29 21
0.800452 -0.0372462 -1.67 28 29 21
0.803059 -0.0372462 -1.67 28 29 21
0.806149 -0.0372686 -1.671 28 29 21
0.808758 -0.0372686 -1.671 28 29 21
0.811853 -0.0372909 -1.672 28 29 21
0.814463 -0.0372909 -1.672 28 29 21
0.797844 -0.0398567 -1.67 28 29 21
0.800452 -0.0398567 -1.67 28 29 21
0.803059 -0.0398567 -1.67 28 29 21
0.806149 -0.0398805 -1.671 27 28 20
0.808758 -0.0398805 -1.671 26 27 19
0.811853 -0.0399044 -1.672 27 28 20
0.814463 -0.0399044 -1.672 28 29 21
0.800452 -0.0424671 -1.67 26 27 19
0.803059 -0.0424671 -1.67 26 27 19
0.806149 -0.0424925 -1.671 26 27 19
0.808758 -0.0424925 -1.671 26 27 19
0.812338 -0.0425434 -1.673 26 27 19
0.81495 -0.0425434 -1.673 26 27 19
1.83383 -0.123046 -2.057 25 27 16
1.83704 -0.123046 -2.057 25 27 16
1.83329 -0.126446 -2.06 25 27 16
1.83383 -0.126262 -2.057 25 27 16
1.83615 -0.1262 -2.056 25 27 16
1.83936 -0.1262 -2.056 25 27 16
1.83572 -0.130295 -2.07 26 28 17
1.83629 -0.130107 -2.067 26 28 17
1.83329 -0.129666 -2.06 25 27 16
1.83472 -0.12954 -2.058 25 27 16
1.83615 -0.129414 -2.056 25 27 16
1.83936 -0.129414 -2.056 26 28 17
1.84436 -0.12954 -2.058 27 29 18
1.83572 -0.133531 -2.07 26 28 17
1.83629 -0.133338 -2.067 26 28 17
1.83774 -0.133209 -2.065 25 27 16
1.8374 -0.132951 -2.061 25 27 16
1.83794 -0.132757 -2.058 25 27 16
1.84115 -0.132757 -2.058 26 28 17
1.84436 -0.132757 -2.058 27 29 18
1.84134 -0.137427 -2.08 28 30 19
1.83838 -0.136965 -2.073 26 28 17
1.83984 -0.136833 -2.071 25 27 16
1.83863 -0.136502 -2.066 25 27 16
1.84007 -0.13637 -2.064 26 28 17
1.83972 -0.136106 -2.06 25 27 16
1.84115 -0.135974 -2.058 24 26 15
1.84436 -0.135974 -2.058 25 27 16
1.84134 -0.140679 -2.08 25 27 16
1.84193 -0.140476 -2.077 25 27 16
1.84251 -0.140273 -2.074 25 27 16
1.84308 -0.14007 -2.071 26 28 17
1.84275 -0.1398 -2.067 26 28 17
1.84329 -0.139597 -2.064 27 29 18
1.84294 -0.139326 -2.06 26 28 17
1.84615 -0.139326 -2.06 28 30 19
1.84223 -0.143999 -2.081 21 23 12
1.84282 -0.143792 -2.078 21 23 12
1.8434 -0.143584 -2.075 21 23 12
1.84308 -0.143307 -2.071 24 26 15
1.84275 -0.143031 -2.067 24 26 15
1.84329 -0.142823 -2.064 26 28 17
1.84473 -0.142685 -2.062 26 28 17
1.84795 -0.142685 -2.062 26 28 17
1.84489 -0.147464 -2.084 27 29 18
1.84459 -0.147181 -2.08 27 29 18
1.84517 -0.146969 -2.077 24 26 15
1.84486 -0.146686 -2.073 24 26 15
1.84542 -0.146474 -2.07 25 27 16
1.84508 -0.146191 -2.066 25 27 16
1.84831 -0.146191 -2.066 24 26 15
1.84577 -0.150794 -2.085 28 30 19
1.84725 -0.15065 -2.083 27 29 18
1.84784 -0.150433 -2.08 25 27 16
1.84842 -0.150216 -2.077 25 27 16
1.85166 -0.150216 -2.077 25 27 16
1.8558 -0.150288 -2.078 25 27 16
1.8508 -0.154201 -2.087 24 28 17
1.85228 -0.154054 -2.085 23 27 16
1.85376 -0.153906 -2.083 23 27 16
1.85255 -0.153536 -2.078 25 27 16
1.8558 -0.153536 -2.078 25 27 16
1.16669 -0.122661 -1.221 25 26 18
1.1686 -0.122661 -1.221 24 25 17
1.17146 -0.122762 -1.222 24 25 17
1.17337 -0.122762 -1.222 22 23 15
1.16669 -0.12457 -1.221 25 26 18
1.1686 -0.12457 -1.221 25 26 18
1.17146 -0.124672 -1.222 25 26 18
1.17337 -0.124672 -1.222 25 26 18
1.17528 -0.124672 -1.222 27 28 20
1.17815 -0.124774 -1.223 26 27 19
1.18006 -0.124774 -1.223 25 26 18
1.18197 -0.124774 -1.223 22 23 15
1.18388 -0.124774 -1.223 22 23 15
1.18579 -0.124774 -1.223 25 26 18
1.1877 -0.124774 -1.223 26 27 19
1.16192 -0.126582 -1.222 21 21 15
1.16383 -0.126582 -1.222 20 20 14
1.16574 -0.126582 -1.222 20 21 13
1.16669 -0.126479 -1.221 25 26 18
1.1686 -0.126479 -1.221 26 27 19
1.17051 -0.126479 -1.221 26 27 19
1.17241 -0.126479 -1.221 26 27 19
1.17432 -0.126479 -1.221 25 26 18
1.17719 -0.126582 -1.222 25 26 18
1.1791 -0.126582 -1.222 24 25 17
1.181 -0.126582 -1.222 22 23 15
1.18291 -0.126582 -1.222 24 25 17
1.18579 -0.126686 -1.223 25 26 18
1.1877 -0.126686 -1.223 26 27 19
1.15907 -0.128387 -1.221 24 24 18
1.16097 -0.128387 -1.221 22 22 16
1.16288 -0.128387 -1.221 24 24 18
1.16479 -0.128387 -1.221 20 20 14
1.16669 -0.128387 -1.221 25 25 19
1.1686 -0.128387 -1.221 25 26 18
1.17051 -0.128387 -1.221 25 26 18
1.17241 -0.128387 -1.221 27 28 20
1.17432 -0.128387 -1.221 22 23 15
1.17719 -0.128492 -1.222 24 25 17
1.1791 -0.128492 -1.222 22 23 15
1.181 -0.128492 -1.222 24 25 17
1.18291 -0.128492 -1.222 25 26 18
1.18579 -0.128598 -1.223 25 26 18
1.1877 -0.128598 -1.223 26 27 19
1.15907 -0.130296 -1.221 25 25 19
1.16097 -0.130296 -1.221 24 24 18
1.16288 -0.130296 -1.221 22 22 16
1.16479 -0.130296 -1.221 20 20 14
1.16669 -0.130296 -1.221 21 21 15
1.1686 -0.130296 -1.221 21 22 14
1.17051 -0.130296 -1.221 24 25 17
1.17241 -0.130296 -1.221 27 28 20
1.17432 -0.130296 -1.221 25 26 18
1.17719 -0.130403 -1.222 25 26 18
1.1791 -0.130403 -1.222 24 25 17
1.181 -0.130403 -1.222 22 23 15
1.18291 -0.130403 -1.222 22 23 15
1.18482 -0.130403 -1.222 21 22 14
1.1877 -0.130509 -1.223 24 25 17
1.15907 -0.132204 -1.221 25 25 19
1.16097 -0.132204 -1.221 24 24 18
1.16288 -0.132204 -1.221 21 21 15
1.16479 -0.132204 -1.221 22 22 16
1.16669 -0.132204 -1.221 24 24 18
1.1686 -0.132204 -1.221 24 24 18
1.17051 -0.132204 -1.221 24 24 18
1.17241 -0.132204 -1.221 25 26 18
1.17432 -0.132204 -1.221 26 27 19
1.17622 -0.132204 -1.221 26 27 19
1.1791 -0.132313 -1.222 25 26 18
1.181 -0.132313 -1.222 22 23 15
1.18291 -0.132313 -1.222 20 21 13
1.18482 -0.132313 -1.222 21 22 14
1.1877 -0.132421 -1.223 22 23 15
1.15812 -0.134003 -1.22 24 24 18
1.16002 -0.134003 -1.22 25 25 19
1.16288 -0.134113 -1.221 22 22 16
1.16479 -0.134113 -1.221 24 24 18
1.16669 -0.134113 -1.221 24 24 18
1.1686 -0.134113 -1.221 22 24 18
1.17051 -0.134113 -1.221 22 24 18
1.17241 -0.134113 -1.221 20 23 15
1.17432 -0.134113 -1.221 23 26 18
1.17622 -0.134113 -1.221 23 26 18
1.17813 -0.134113 -1.221 23 26 18
1.18004 -0.134113 -1.221 23 26 18
1.18291 -0.134223 -1.222 20 23 15
1.18482 -0.134223 -1.222 20 21 13
1.1877 -0.134333 -1.223 22 23 15
1.15812 -0.13591 -1.22 21 21 15
1.16002 -0.13591 -1.22 24 24 18
1.16288 -0.136022 -1.221 21 21 15
1.16479 -0.136022 -1.221 23 25 19
1.16669 -0.136022 -1.221 22 24 18
1.1686 -0.136022 -1.221 22 24 18
1.17051 -0.136022 -1.221 22 24 18
1.17241 -0.136022 -1.221 23 25 19
1.17432 -0.136022 -1.221 24 26 20
1.17622 -0.136022 -1.221 22 24 18
1.17813 -0.136022 -1.221 23 25 19
1.18004 -0.136022 -1.221 23 25 19
1.18291 -0.136133 -1.222 23 25 19
1.18579 -0.136244 -1.223 21 22 14
1.1877 -0.136244 -1.223 21 22 14
1.15812 -0.137817 -1.22 24 24 18
1.16002 -0.137817 -1.22 23 25 19
1.16669 -0.13793 -1.221 23 25 19
1.1686 -0.13793 -1.221 23 25 19
1.17051 -0.13793 -1.221 23 25 19
1.17241 -0.13793 -1.221 25 27 21
1.17432 -0.13793 -1.221 23 25 19
1.17622 -0.13793 -1.221 22 24 18
1.17051 -0.139839 -1.221 19 25 18
1.17241 -0.139839 -1.221 21 27 20
1.17432 -0.139839 -1.221 20 26 19
1.17622 -0.139839 -1.221 20 26 19
